{
  "accessors": [
    {
      "bufferView": 2,
      "componentType": 5126,
      "count": 2207,
      "max": [
        7.938908100128174,
        27.79475975036621,
        2.5470430850982666
      ],
      "min": [
        -15.604225158691406,
        -5.7255167961120605,
        -2.3951849937438965
      ],
      "type": "VEC3"
    },
    {
      "bufferView": 2,
      "byteOffset": 26484,
      "componentType": 5126,
      "count": 2207,
      "max": [
        1.0,
        1.0,
        1.0
      ],
      "min": [
        -1.0,
        -1.0,
        -1.0
      ],
      "type": "VEC3"
    },
    {
      "bufferView": 3,
      "componentType": 5126,
      "count": 2207,
      "max": [
        1.0,
        1.0,
        1.0,
        1.0
      ],
      "min": [
        -0.1463160365819931,
        -1.0,
        -1.0,
        -1.0
      ],
      "type": "VEC4"
    },
    {
      "bufferView": 1,
      "componentType": 5126,
      "count": 2207,
      "max": [
        0.9447669982910156,
        0.9980080127716064
      ],
      "min": [
        0.0018860000418499112,
        0.0019920000340789557
      ],
      "type": "VEC2"
    },
    {
      "bufferView": 0,
      "componentType": 5125,
      "count": 9636,
      "type": "SCALAR"
    },
    {
      "bufferView": 2,
      "byteOffset": 52968,
      "componentType": 5126,
      "count": 2162,
      "max": [
        23.220882415771484,
        27.79475975036621,
        -5.185720920562744
      ],
      "min": [
        -3.190859079360962,
        -5.703772068023682,
        -8.565813064575195
      ],
      "type": "VEC3"
    },
    {
      "bufferView": 2,
      "byteOffset": 78912,
      "componentType": 5126,
      "count": 2162,
      "max": [
        1.0,
        1.0,
        1.0
      ],
      "min": [
        -1.0,
        -1.0,
        -1.0
      ],
      "type": "VEC3"
    },
    {
      "bufferView": 3,
      "byteOffset": 35312,
      "componentType": 5126,
      "count": 2162,
      "max": [
        1.0,
        1.0,
        1.0,
        1.0
      ],
      "min": [
        0.0,
        -1.0,
        -1.0,
        1.0
      ],
      "type": "VEC4"
    },
    {
      "bufferView": 1,
      "byteOffset": 17656,
      "componentType": 5126,
      "count": 2162,
      "max": [
        0.8689010143280029,
        0.9979010224342346
      ],
      "min": [
        0.0018860000418499112,
        0.0019920000340789557
      ],
      "type": "VEC2"
    },
    {
      "bufferView": 0,
      "byteOffset": 38544,
      "componentType": 5125,
      "count": 9636,
      "type": "SCALAR"
    }
  ],
  "asset": {
    "extras": {
      "author": "lizhou ding (https://sketchfab.com/vancchino)",
      "license": "CC-BY-4.0 (http://creativecommons.org/licenses/by/4.0/)",
      "source": "https://sketchfab.com/3d-models/curtain-cb07918102ca40f9b0a4cc6eb20a8aa1",
      "title": "Curtain"
    },
    "generator": "Sketchfab-16.17.0",
    "version": "2.0"
  },
  "bufferViews": [
    {
      "buffer": 0,
      "byteLength": 77088,
      "name": "floatBufferViews",
      "target": 34963
    },
    {
      "buffer": 0,
      "byteLength": 34952,
      "byteOffset": 77088,
      "byteStride": 8,
      "name": "floatBufferViews",
      "target": 34962
    },
    {
      "buffer": 0,
      "byteLength": 104856,
      "byteOffset": 112040,
      "byteStride": 12,
      "name": "floatBufferViews",
      "target": 34962
    },
    {
      "buffer": 0,
      "byteLength": 69904,
      "byteOffset": 216896,
      "byteStride": 16,
      "name": "floatBufferViews",
      "target": 34962
    }
  ],
  "buffers": [
    {
      "byteLength": 286800,
      "uri": "scene.bin"
    }
  ],
  "images": [
    {
      "uri": "textures/defaultPolygonShader_1001_baseColor.jpeg"
    },
    {
      "uri": "textures/defaultPolygonShader_1001_metallicRoughness.png"
    },
    {
      "uri": "textures/defaultPolygonShader_1001_normal.png"
    }
  ],
  "materials": [
    {
      "doubleSided": true,
      "name": "defaultPolygonShader_1001",
      "normalTexture": {
        "index": 2
      },
      "occlusionTexture": {
        "index": 1
      },
      "pbrMetallicRoughness": {
        "baseColorTexture": {
          "index": 0
        },
        "metallicRoughnessTexture": {
          "index": 1
        }
      }
    }
  ],
  "meshes": [
    {
      "name": "defaultMaterial",
      "primitives": [
        {
          "attributes": {
            "NORMAL": 1,
            "POSITION": 0,
            "TANGENT": 2,
            "TEXCOORD_0": 3
          },
          "indices": 4,
          "material": 0,
          "mode": 4
        }
      ]
    },
    {
      "name": "defaultMaterial",
      "primitives": [
        {
          "attributes": {
            "NORMAL": 6,
            "POSITION": 5,
            "TANGENT": 7,
            "TEXCOORD_0": 8
          },
          "indices": 9,
          "material": 0,
          "mode": 4
        }
      ]
    }
  ],
  "nodes": [
    {
      "children": [
        1
      ],
      "matrix": [
        1.0,
        0.0,
        0.0,
        0.0,
        0.0,
        2.220446049250313e-16,
        -1.0,
        0.0,
        0.0,
        1.0,
        2.220446049250313e-16,
        0.0,
        0.0,
        0.0,
        0.0,
        1.0
      ],
      "name": "Sketchfab_model"
    },
    {
      "children": [
        2,
        4
      ],
      "matrix": [
        1.0,
        0.0,
        0.0,
        0.0,
        0.0,
        -4.371139006309477e-08,
        0.999999999999999,
        0.0,
        0.0,
        -0.999999999999999,
        -4.371139006309477e-08,
        0.0,
        0.0,
        0.0,
        0.0,
        1.0
      ],
      "name": "Collada visual scene group"
    },
    {
      "children": [
        3
      ],
      "name": "SM_CurtainA"
    },
    {
      "mesh": 0,
      "name": "defaultMaterial"
    },
    {
      "children": [
        5
      ],
      "name": "pPlane6"
    },
    {
      "children": [
        6
      ],
      "name": "SM_CurtainB"
    },
    {
      "mesh": 1,
      "name": "defaultMaterial"
    }
  ],
  "samplers": [
    {
      "magFilter": 9729,
      "minFilter": 9987,
      "wrapS": 10497,
      "wrapT": 10497
    }
  ],
  "scene": 0,
  "scenes": [
    {
      "name": "Sketchfab_Scene",
      "nodes": [
        0
      ]
    }
  ],
  "textures": [
    {
      "sampler": 0,
      "source": 0
    },
    {
      "sampler": 0,
      "source": 1
    },
    {
      "sampler": 0,
      "source": 2
    }
  ]
}
