{
  "accessors": [
    {
      "bufferView": 2,
      "componentType": 5126,
      "count": 4,
      "max": [
        1.0,
        0.0,
        1.0
      ],
      "min": [
        -1.0,
        0.0,
        -1.0
      ],
      "type": "VEC3"
    },
    {
      "bufferView": 2,
      "byteOffset": 48,
      "componentType": 5126,
      "count": 4,
      "max": [
        0.0,
        1.0,
        -0.0
      ],
      "min": [
        0.0,
        1.0,
        -0.0
      ],
      "type": "VEC3"
    },
    {
      "bufferView": 1,
      "componentType": 5126,
      "count": 4,
      "max": [
        1.0,
        1.0
      ],
      "min": [
        0.0,
        0.0
      ],
      "type": "VEC2"
    },
    {
      "bufferView": 0,
      "componentType": 5125,
      "count": 6,
      "type": "SCALAR"
    },
    {
      "bufferView": 2,
      "byteOffset": 96,
      "componentType": 5126,
      "count": 80,
      "max": [
        1.0,
        2.0,
        1.0
      ],
      "min": [
        -1.0,
        0.0,
        -1.0
      ],
      "type": "VEC3"
    },
    {
      "bufferView": 2,
      "byteOffset": 1056,
      "componentType": 5126,
      "count": 80,
      "max": [
        1.0,
        1.0,
        1.0
      ],
      "min": [
        -1.0,
        -1.0,
        -1.0
      ],
      "type": "VEC3"
    },
    {
      "bufferView": 1,
      "byteOffset": 32,
      "componentType": 5126,
      "count": 80,
      "max": [
        0.875,
        1.0
      ],
      "min": [
        0.0,
        0.0
      ],
      "type": "VEC2"
    },
    {
      "bufferView": 0,
      "byteOffset": 24,
      "componentType": 5125,
      "count": 198,
      "type": "SCALAR"
    },
    {
      "bufferView": 2,
      "byteOffset": 2016,
      "componentType": 5126,
      "count": 631,
      "max": [
        1.0,
        2.0,
        1.0
      ],
      "min": [
        -1.0,
        -0.004821155220270157,
        -1.0
      ],
      "type": "VEC3"
    },
    {
      "bufferView": 2,
      "byteOffset": 9588,
      "componentType": 5126,
      "count": 631,
      "max": [
        1.0,
        1.0,
        1.0
      ],
      "min": [
        -1.0,
        -1.0,
        -1.0
      ],
      "type": "VEC3"
    },
    {
      "bufferView": 1,
      "byteOffset": 672,
      "componentType": 5126,
      "count": 631,
      "max": [
        0.875,
        1.0
      ],
      "min": [
        0.0,
        -4.656612873077393e-10
      ],
      "type": "VEC2"
    },
    {
      "bufferView": 0,
      "byteOffset": 816,
      "componentType": 5125,
      "count": 1563,
      "type": "SCALAR"
    },
    {
      "bufferView": 2,
      "byteOffset": 17160,
      "componentType": 5126,
      "count": 631,
      "max": [
        1.0,
        2.0,
        1.0
      ],
      "min": [
        -1.0,
        -0.004821155220270157,
        -1.0
      ],
      "type": "VEC3"
    },
    {
      "bufferView": 2,
      "byteOffset": 24732,
      "componentType": 5126,
      "count": 631,
      "max": [
        1.0,
        1.0,
        1.0
      ],
      "min": [
        -1.0,
        -1.0,
        -1.0
      ],
      "type": "VEC3"
    },
    {
      "bufferView": 1,
      "byteOffset": 5720,
      "componentType": 5126,
      "count": 631,
      "max": [
        0.875,
        1.0
      ],
      "min": [
        0.0,
        -4.656612873077393e-10
      ],
      "type": "VEC2"
    },
    {
      "bufferView": 0,
      "byteOffset": 7068,
      "componentType": 5125,
      "count": 1563,
      "type": "SCALAR"
    },
    {
      "bufferView": 2,
      "byteOffset": 32304,
      "componentType": 5126,
      "count": 631,
      "max": [
        1.0,
        2.0,
        1.0
      ],
      "min": [
        -1.0,
        -0.004821155220270157,
        -1.0
      ],
      "type": "VEC3"
    },
    {
      "bufferView": 2,
      "byteOffset": 39876,
      "componentType": 5126,
      "count": 631,
      "max": [
        1.0,
        1.0,
        1.0
      ],
      "min": [
        -1.0,
        -1.0,
        -1.0
      ],
      "type": "VEC3"
    },
    {
      "bufferView": 1,
      "byteOffset": 10768,
      "componentType": 5126,
      "count": 631,
      "max": [
        0.875,
        1.0
      ],
      "min": [
        0.0,
        -4.656612873077393e-10
      ],
      "type": "VEC2"
    },
    {
      "bufferView": 0,
      "byteOffset": 13320,
      "componentType": 5125,
      "count": 1563,
      "type": "SCALAR"
    },
    {
      "bufferView": 2,
      "byteOffset": 47448,
      "componentType": 5126,
      "count": 631,
      "max": [
        1.0,
        2.0,
        1.0
      ],
      "min": [
        -1.0,
        -0.004821155220270157,
        -1.0
      ],
      "type": "VEC3"
    },
    {
      "bufferView": 2,
      "byteOffset": 55020,
      "componentType": 5126,
      "count": 631,
      "max": [
        1.0,
        1.0,
        1.0
      ],
      "min": [
        -1.0,
        -1.0,
        -1.0
      ],
      "type": "VEC3"
    },
    {
      "bufferView": 1,
      "byteOffset": 15816,
      "componentType": 5126,
      "count": 631,
      "max": [
        0.875,
        1.0
      ],
      "min": [
        0.0,
        -4.656612873077393e-10
      ],
      "type": "VEC2"
    },
    {
      "bufferView": 0,
      "byteOffset": 19572,
      "componentType": 5125,
      "count": 1563,
      "type": "SCALAR"
    },
    {
      "bufferView": 2,
      "byteOffset": 62592,
      "componentType": 5126,
      "count": 631,
      "max": [
        1.0,
        2.0,
        1.0
      ],
      "min": [
        -1.0,
        -0.004821155220270157,
        -1.0
      ],
      "type": "VEC3"
    },
    {
      "bufferView": 2,
      "byteOffset": 70164,
      "componentType": 5126,
      "count": 631,
      "max": [
        1.0,
        1.0,
        1.0
      ],
      "min": [
        -1.0,
        -1.0,
        -1.0
      ],
      "type": "VEC3"
    },
    {
      "bufferView": 1,
      "byteOffset": 20864,
      "componentType": 5126,
      "count": 631,
      "max": [
        0.875,
        1.0
      ],
      "min": [
        0.0,
        -4.656612873077393e-10
      ],
      "type": "VEC2"
    },
    {
      "bufferView": 0,
      "byteOffset": 25824,
      "componentType": 5125,
      "count": 1563,
      "type": "SCALAR"
    }
  ],
  "asset": {
    "extras": {
      "author": "der_typ (https://sketchfab.com/der_typ)",
      "license": "CC-BY-4.0 (http://creativecommons.org/licenses/by/4.0/)",
      "source": "https://sketchfab.com/3d-models/ikea-cabinet-6a3a2a19a048465a90fe97e2556b2996",
      "title": "Ikea Cabinet"
    },
    "generator": "Sketchfab-15.30.0",
    "version": "2.0"
  },
  "bufferViews": [
    {
      "buffer": 0,
      "byteLength": 32076,
      "name": "floatBufferViews",
      "target": 34963
    },
    {
      "buffer": 0,
      "byteLength": 25912,
      "byteOffset": 32076,
      "byteStride": 8,
      "name": "floatBufferViews",
      "target": 34962
    },
    {
      "buffer": 0,
      "byteLength": 77736,
      "byteOffset": 57988,
      "byteStride": 12,
      "name": "floatBufferViews",
      "target": 34962
    }
  ],
  "buffers": [
    {
      "byteLength": 135724,
      "uri": "scene.bin"
    }
  ],
  "images": [
    {
      "uri": "textures/Tiles05_6K_baseColor.jpeg"
    },
    {
      "uri": "textures/WoodQuarteredChiffon001_2K_baseColor.jpeg"
    }
  ],
  "materials": [
    {
      "doubleSided": true,
      "name": "Tiles05_6K",
      "pbrMetallicRoughness": {
        "baseColorTexture": {
          "index": 0
        }
      }
    },
    {
      "doubleSided": true,
      "name": "WoodQuarteredChiffon001_2K",
      "pbrMetallicRoughness": {
        "baseColorTexture": {
          "index": 1
        }
      }
    }
  ],
  "meshes": [
    {
      "name": "Object_0",
      "primitives": [
        {
          "attributes": {
            "NORMAL": 1,
            "POSITION": 0,
            "TEXCOORD_0": 2
          },
          "indices": 3,
          "material": 0,
          "mode": 4
        }
      ]
    },
    {
      "name": "Object_1",
      "primitives": [
        {
          "attributes": {
            "NORMAL": 5,
            "POSITION": 4,
            "TEXCOORD_0": 6
          },
          "indices": 7,
          "material": 1,
          "mode": 4
        }
      ]
    },
    {
      "name": "Object_2",
      "primitives": [
        {
          "attributes": {
            "NORMAL": 9,
            "POSITION": 8,
            "TEXCOORD_0": 10
          },
          "indices": 11,
          "material": 1,
          "mode": 4
        }
      ]
    },
    {
      "name": "Object_3",
      "primitives": [
        {
          "attributes": {
            "NORMAL": 13,
            "POSITION": 12,
            "TEXCOORD_0": 14
          },
          "indices": 15,
          "material": 1,
          "mode": 4
        }
      ]
    },
    {
      "name": "Object_4",
      "primitives": [
        {
          "attributes": {
            "NORMAL": 17,
            "POSITION": 16,
            "TEXCOORD_0": 18
          },
          "indices": 19,
          "material": 1,
          "mode": 4
        }
      ]
    },
    {
      "name": "Object_5",
      "primitives": [
        {
          "attributes": {
            "NORMAL": 21,
            "POSITION": 20,
            "TEXCOORD_0": 22
          },
          "indices": 23,
          "material": 1,
          "mode": 4
        }
      ]
    },
    {
      "name": "Object_6",
      "primitives": [
        {
          "attributes": {
            "NORMAL": 25,
            "POSITION": 24,
            "TEXCOORD_0": 26
          },
          "indices": 27,
          "material": 1,
          "mode": 4
        }
      ]
    }
  ],
  "nodes": [
    {
      "children": [
        1
      ],
      "matrix": [
        1.0,
        0.0,
        0.0,
        0.0,
        0.0,
        2.220446049250313e-16,
        -1.0,
        0.0,
        0.0,
        1.0,
        2.220446049250313e-16,
        0.0,
        0.0,
        0.0,
        0.0,
        1.0
      ],
      "name": "Sketchfab_model"
    },
    {
      "children": [
        2
      ],
      "name": "root"
    },
    {
      "children": [
        3,
        5,
        7,
        9,
        11,
        13,
        15
      ],
      "matrix": [
        1.0,
        0.0,
        0.0,
        0.0,
        0.0,
        2.220446049250313e-16,
        1.0,
        0.0,
        0.0,
        -1.0,
        2.220446049250313e-16,
        0.0,
        0.0,
        0.0,
        0.0,
        1.0
      ],
      "name": "GLTF_SceneRootNode"
    },
    {
      "children": [
        4
      ],
      "matrix": [
        47.66815948486328,
        0.0,
        0.0,
        0.0,
        0.0,
        47.66815948486328,
        0.0,
        0.0,
        0.0,
        0.0,
        47.66815948486328,
        0.0,
        0.0,
        0.0,
        0.0,
        1.0
      ],
      "name": "Plane_2"
    },
    {
      "mesh": 0,
      "name": "Object_4"
    },
    {
      "children": [
        6
      ],
      "matrix": [
        0.6000000238418579,
        0.0,
        0.0,
        0.0,
        0.0,
        0.8999999761581421,
        0.0,
        0.0,
        0.0,
        0.0,
        0.4000000059604645,
        0.0,
        0.0,
        0.0,
        -0.0008406549459323287,
        1.0
      ],
      "name": "Cube_3"
    },
    {
      "mesh": 1,
      "name": "Object_6"
    },
    {
      "children": [
        8
      ],
      "matrix": [
        3.097284517727472e-08,
        0.18371981382369731,
        0.0,
        0.0,
        -0.5488521456718366,
        9.252955453907675e-08,
        0.0,
        0.0,
        0.0,
        0.0,
        0.36739441752433777,
        0.0,
        0.5962841510772705,
        0.23022501170635223,
        0.0012810957850888371,
        1.0
      ],
      "name": "Cube.006_4"
    },
    {
      "mesh": 2,
      "name": "Object_8"
    },
    {
      "children": [
        10
      ],
      "matrix": [
        3.097284517727472e-08,
        0.18371981382369731,
        0.0,
        0.0,
        -0.5488521456718366,
        9.252955453907675e-08,
        0.0,
        0.0,
        0.0,
        0.0,
        0.36739441752433777,
        0.0,
        0.5962841510772705,
        0.6050676703453064,
        0.0012810957850888371,
        1.0
      ],
      "name": "Cube.001_5"
    },
    {
      "mesh": 3,
      "name": "Object_10"
    },
    {
      "children": [
        12
      ],
      "matrix": [
        3.097284517727472e-08,
        0.18371981382369731,
        0.0,
        0.0,
        -0.5488521456718366,
        9.252955453907675e-08,
        0.0,
        0.0,
        0.0,
        0.0,
        0.36739441752433777,
        0.0,
        0.5962841510772705,
        0.9781422019004822,
        0.0012810957850888371,
        1.0
      ],
      "name": "Cube.002_6"
    },
    {
      "mesh": 4,
      "name": "Object_12"
    },
    {
      "children": [
        14
      ],
      "matrix": [
        2.4269512416525303e-08,
        0.1439580470323542,
        0.0,
        0.0,
        -0.5488521456718366,
        9.252955453907675e-08,
        0.0,
        0.0,
        0.0,
        0.0,
        0.36739441752433777,
        0.0,
        0.5962841510772705,
        1.3123180866241455,
        0.0012810957850888371,
        1.0
      ],
      "name": "Cube.003_7"
    },
    {
      "mesh": 5,
      "name": "Object_14"
    },
    {
      "children": [
        16
      ],
      "matrix": [
        2.4269512416525303e-08,
        0.1439580470323542,
        0.0,
        0.0,
        -0.5488521456718366,
        9.252955453907675e-08,
        0.0,
        0.0,
        0.0,
        0.0,
        0.36739441752433777,
        0.0,
        0.5962841510772705,
        1.6049429178237915,
        0.0012810957850888371,
        1.0
      ],
      "name": "Cube.004_8"
    },
    {
      "mesh": 6,
      "name": "Object_16"
    }
  ],
  "samplers": [
    {
      "magFilter": 9729,
      "minFilter": 9987,
      "wrapS": 10497,
      "wrapT": 10497
    }
  ],
  "scene": 0,
  "scenes": [
    {
      "name": "Sketchfab_Scene",
      "nodes": [
        0
      ]
    }
  ],
  "textures": [
    {
      "sampler": 0,
      "source": 0
    },
    {
      "sampler": 0,
      "source": 1
    }
  ]
}
